<?xml version="1.0" encoding="utf-8"?>
<!-- Generator: Adobe Illustrator 27.0.0, SVG Export Plug-In . SVG Version: 6.00 Build 0)  -->
<svg version="1.1" id="Layer_1" xmlns="http://www.w3.org/2000/svg" xmlns:xlink="http://www.w3.org/1999/xlink" x="0px" y="0px"
	 viewBox="0 0 720 674.3" style="enable-background:new 0 0 720 674.3;" xml:space="preserve">
<style type="text/css">
	.st0{fill:#FAA32F;}
	.st1{fill:#F47B22;}
	.st2{fill:#C42329;}
	.st3{fill:#E42F40;}
	.st4{fill:#B4217A;}
	.st5{fill:#E31567;}
	.st6{fill:#512F61;}
	.st7{fill:#7F2A91;}
	.st8{fill:#10659C;}
	.st9{fill:#0B6192;}
	.st10{fill:#0FACE3;}
	.st11{fill:#A5282E;}
	.st12{fill:#EB1D31;}
	.st13{fill:#F47B20;}
	.st14{fill:none;}
	.st15{fill:#106292;}
	.st16{fill:#1A693A;}
	.st17{fill:#0F82B8;}
	.st18{fill:#17A9E2;}
	.st19{fill:#1CA685;}
	.st20{fill:#3DB049;}
	.st21{fill:#A7CF3A;}
	.st22{fill:#F15E28;}
</style>
<g>
	<path class="st0" d="M604.7,87.5l-76.1,72.7c-4.7-4.1-7.3-10.4-7.3-18.7c0-13.4,0-26.5,0-39.9c0-14.2,8.8-23.2,23.2-23.2
		c14,0,27.9,0,41.9,0C594.5,78.4,601,82,604.7,87.5z"/>
	<path class="st1" d="M613.4,161.2l-8.1,7.3l-4.7,4.3c-3.1-4.3-8.3-6.7-15.3-7.1c-13.2-0.4-26.3-0.2-39.3-0.2
		c-7.1,0-12.8-2-16.9-5.5l76.1-72.7c2.4,3.5,3.7,8.1,3.7,13.4c0,7.1,0,14.2,0,22.8c0.4,7.9-0.6,17.5,0.6,26.9
		C609.8,155.3,611.2,158.8,613.4,161.2z"/>
	<path class="st2" d="M659.7,223.1c-2.8,2.4-6.5,3.7-11.2,3.7c-9.4,0.2-19.1-0.6-28.7,0.6c-4.7,0.6-8.1,2.4-10.2,5.3l-6.7-6.1
		l-6.5-5.9c4.3-2.9,6.7-7.9,7.1-14.5c0.4-7.3,0.4-14.7,0-22c-0.2-4.7-1.4-8.5-3.3-11.4l4.7-4.3L659.7,223.1z"/>
	<path class="st3" d="M664.9,210.9c0,5.3-1.8,9.4-5.1,12.2l-54.6-54.6l8.1-7.3c2.8,3.1,7.1,4.7,13,4.7c7.3,0.2,14.7,0,22,0
		c10.6,0.2,16.5,6.1,16.5,16.7C664.9,192.2,665,201.7,664.9,210.9z"/>
	<path class="st4" d="M614.1,278.1l-14,14c-3.7-3.9-9-5.9-16.3-6.1c-7.3-0.2-14.7,0-22,0c-4.3,0-8.1-1.2-10.8-3.5l52.3-55.6l6.7,6.1
		c-1.2,1.8-2,4.1-2.2,7.1c-0.8,8.8-1,17.9,0,26.7C608.2,271.4,610.6,275.4,614.1,278.1z"/>
	<path class="st5" d="M603.1,226.6l-52.3,55.6c-3.5-2.8-5.5-7.1-5.5-12.6c0-10,0-20,0-30.1c0-9.4,6.5-15.7,16.1-15.7
		c7.9,0,15.7,0,23.4,0c4.7,0,8.6-1.2,11.8-3.1L603.1,226.6z"/>
	<path class="st6" d="M682.3,357.7c-3.5,3.9-9.2,6.1-16.1,6.1c-12.8,0-25.6,0-38.5,0c-13,0-21-8.3-21.2-21
		c-0.2-12.4,0.8-25-0.8-37.5c-0.8-5.9-2.6-10.2-5.5-13.6l8.1-8.1L682.3,357.7z"/>
	<path class="st7" d="M688,305.6c-0.6,12.4-0.4,24.8-0.4,37c0,6.3-2,11.4-5.3,15.1l-73.9-73.9l5.9-5.9c3.1,2.4,7.5,3.9,12.8,4.3
		c13,1.2,25.9,0.4,38.9,0.6C680.4,283,688.6,291.1,688,305.6z"/>
	<path class="st8" d="M503.5,237c-2.6,1.8-5.7,2.8-9.4,2.9c-5.7,0-11.2,0-16.9,0l0,0c-5.9,0-11.6,0.2-17.3,0
		c-7.9-0.2-13.6-5.7-13.8-13.8c-0.2-11.6-0.2-23.2,0-34.8c0-3.5,1-6.5,2.8-8.8L503.5,237z"/>
	<path class="st9" d="M717.3,124.8l-33.8,33.8c-2.8-1.4-4.3-4.1-4.5-7.9c-0.2-7.3-0.2-14.7,0-22c0.2-4.9,3.5-8.3,8.5-8.3
		c7.5-0.2,14.9-0.2,22.4,0C713.6,120.7,716.2,122.3,717.3,124.8z"/>
	<path class="st10" d="M718.5,140.1c0,3.5,0,6.9,0,10.2c-0.2,5.7-3.1,9.2-8.8,9.4c-7.1,0.2-14.3,0.2-21.6,0c-1.8,0-3.1-0.4-4.5-1.2
		l33.8-33.8c0.6,1.2,1,2.8,1,4.3C718.5,132.9,718.5,136.4,718.5,140.1z"/>
	<path class="st11" d="M651.5,57.2c-1,2.4-3.1,3.5-6.7,3.5c-2.8,0-5.7,0-8.5,0c-2.4,0-4.7,0-7.1,0c-5.3,0-7.9-2.4-7.9-7.7
		c0-5.1,0-10.2,0-15.3c0-2.4,0.6-4.1,1.6-5.3L651.5,57.2z"/>
	<path class="st12" d="M652.3,53.7c0,1.4-0.2,2.6-0.8,3.5l-28.1-24.8c1-1.2,2.8-2,5.1-2c5.7-0.2,11.6-0.2,17.3,0
		c4.3,0.2,6.5,2.8,6.7,6.9C652.5,42.8,652.5,48.2,652.3,53.7z"/>
	<path class="st13" d="M652.3,417.7c0,2.8-1,4.7-2.6,5.9l-25.6-27.5c1.2-1,2.8-1.4,4.7-1.6c1.4,0,2.8,0,4.3,0h4.1c2.2,0,4.3,0,6.5,0
		c6.1,0,8.3,2.2,8.5,8.1C652.5,407.6,652.3,412.8,652.3,417.7z"/>
	<line class="st14" x1="291" y1="500.4" x2="289.6" y2="501.2"/>
	<line class="st14" x1="291" y1="167.9" x2="289.6" y2="167.1"/>
	<g>
		<polygon class="st5" points="145,250.6 1.5,333.4 1.5,167.9 		"/>
		<polygon class="st7" points="145,417.7 1.5,500.4 1.5,334.9 		"/>
		<polygon class="st6" points="146.2,418.5 146.2,584 145,584.7 1.5,502 1.5,500.4 145,417.7 		"/>
		<polygon class="st4" points="146.2,251.4 146.2,416.9 145,417.7 1.5,334.9 1.5,333.4 145,250.6 		"/>
		<polygon class="st15" points="289.6,501.2 146.2,584 146.2,418.5 		"/>
		<polygon class="st11" points="146.2,84.3 146.2,249.8 145,250.6 1.5,167.9 1.5,166.3 145,83.5 		"/>
		<polygon class="st16" points="579,501.2 435.5,584 435.5,418.5 		"/>
		<polygon class="st3" points="434.3,83.5 291,166.3 291,0.8 		"/>
		<polygon class="st2" points="291,0.8 291,166.3 289.6,167.1 289.6,167.1 146.2,84.3 146.2,82.7 289.6,0 289.6,0 		"/>
		<polygon class="st12" points="289.6,167.1 232.2,200.3 146.2,249.8 146.2,84.3 		"/>
		<polygon class="st17" points="291,502 291,667.5 289.6,668.3 289.6,668.3 232.2,635.1 146.2,585.5 146.2,584 289.6,501.2 		"/>
		<polygon class="st18" points="434.3,584.7 291,667.5 291,502 		"/>
		<polygon class="st19" points="435.5,418.5 435.5,584 434.3,584.7 434.3,584.7 291,502 291,500.4 434.3,417.7 		"/>
	</g>
	<path class="st17" d="M508.8,225.8c0,4.9-2,8.8-5.3,11.4L449,182.8c2.4-3.1,6.1-5.1,10.8-5.3c11.8-0.2,23.8-0.2,35.6,0
		c7.5,0.2,13.2,6.3,13.4,13.8C509,202.6,509,214.2,508.8,225.8z"/>
	<g>
		<path class="st20" d="M570.9,351.4c-0.2,6.1-3.3,9.8-9.4,10c-7.7,0.2-15.3,0.2-23,0c-2.4,0-4.3-0.8-5.9-2l36.2-36.2
			c1.4,1.6,2.2,3.9,2.2,6.7c0,3.5,0,7.1,0,10.8C570.9,344.4,570.9,347.9,570.9,351.4z"/>
		<path class="st21" d="M568.7,323.3l-36.2,36.2c-2.2-1.6-3.3-4.3-3.3-7.7c-0.2-7.1-0.2-14.3,0-21.4c0.2-7.1,3.3-10.2,10.6-10.2
			c7.1-0.2,14-0.2,21,0C564.4,320.2,567.2,321.2,568.7,323.3z"/>
	</g>
	<path class="st22" d="M649.7,423.8c-1.2,0.8-2.8,1.4-4.7,1.4c-5.5,0.2-11,0.2-16.5,0c-4.5-0.2-6.9-2.6-6.9-7.1
		c-0.2-5.3,0-10.6,0-15.9c0-2.8,0.8-4.7,2.4-5.9L649.7,423.8z"/>
</g>
</svg>
